<svg xmlns="http://www.w3.org/2000/svg" version="1.1" xmlns:xlink="http://www.w3.org/1999/xlink" xmlns:svgjs="http://svgjs.com/svgjs" width="1920" height="1080" preserveAspectRatio="none" viewBox="0 0 1920 1080"><g mask="url(&quot;#SvgjsMask1053&quot;)" fill="none"><rect width="1920" height="1080" x="0" y="0" fill="#0e2a47"></rect><path d="M78 1080L1158 0L2026.5 0L946.5 1080z" fill="url(#SvgjsLinearGradient1054)"></path><path d="M699.6 1080L1779.6 0L2442.6 0L1362.6 1080z" fill="url(#SvgjsLinearGradient1054)"></path><path d="M1839 1080L759 0L228 0L1308 1080z" fill="url(#SvgjsLinearGradient1055)"></path><path d="M1272.4 1080L192.4000000000001 0L-46.09999999999991 0L1033.9 1080z" fill="url(#SvgjsLinearGradient1055)"></path><path d="M1280.3504343769569 1080L1920 440.35043437695685L1920 1080z" fill="url(#SvgjsLinearGradient1054)"></path><path d="M0 1080L639.6495656230431 1080L 0 440.35043437695685z" fill="url(#SvgjsLinearGradient1055)"></path></g><defs><mask id="SvgjsMask1053"><rect width="1920" height="1080" fill="#ffffff"></rect></mask><linearGradient x1="0%" y1="100%" x2="100%" y2="0%" id="SvgjsLinearGradient1054"><stop stop-color="rgba(15, 70, 185, 0.2)" offset="0"></stop><stop stop-opacity="0" stop-color="rgba(15, 70, 185, 0.2)" offset="0.66"></stop></linearGradient><linearGradient x1="100%" y1="100%" x2="0%" y2="0%" id="SvgjsLinearGradient1055"><stop stop-color="rgba(15, 70, 185, 0.2)" offset="0"></stop><stop stop-opacity="0" stop-color="rgba(15, 70, 185, 0.2)" offset="0.66"></stop></linearGradient></defs></svg>